# AST/ASF file generated using VICON BodyLanguage
# -----------------------------------------------
:version 1.10
:name VICON
:units
  mass 1.0
  length 0.45
  angle deg
:documentation
   .ast/.asf automatically generated from VICON data using
   VICON BodyBuilder and BodyLanguage model FoxedUp or BRILLIANT.MOD
:root
   order TX TY TZ RX RY RZ
   axis XYZ
   position 0 0 0  
   orientation 0 0 0 
:bonedata
  begin
     id 1 
     name lhipjoint
     direction 0.635376 -0.686425 0.353719 
     length 2.47244 
     axis 0 0 0  XYZ
  end
  begin
     id 2 
     name lfemur
     direction 0.34202 -0.939693 0  
     length 7.25268  
     axis 0 0 20  XYZ
    dof rx ry rz
    limits (-160.0 20.0)
           (-70.0 70.0)
           (-60.0 70.0)
  end
  begin
     id 3 
     name ltibia
     direction 0.34202 -0.939693 0   
     length 7.6767   
     axis 0 0 20   XYZ
    dof rx
    limits (-10.0 170.0)
  end
  begin
     id 4 
     name lfoot
     direction 0.0803374 -0.220725 0.972022   
     length 2.22945   
     axis -90 7.62852e-016 20   XYZ
    dof rx rz
    limits (-45.0 90.0)
           (-70.0 20.0)
  end
  begin
     id 5 
     name ltoes
     direction 1.53579e-011 -4.21994e-011 1   
     length 1.11848   
     axis -90 7.62852e-016 20   XYZ
    dof rx
    limits (-90.0 20.0)
  end
  begin
     id 6 
     name rhipjoint
     direction -0.664428 -0.664335 0.342336   
     length 2.55466  
     axis 0 0 0  XYZ 
  end
  begin
     id 7 
     name rfemur
     direction -0.34202 -0.939693 0   
     length 6.83172   
     axis 0 0 -20   XYZ
    dof rx ry rz
    limits (-160.0 20.0)
           (-70.0 70.0)
           (-70.0 60.0)
  end
  begin
     id 8 
     name rtibia
     direction -0.34202 -0.939693 0   
     length 7.62692   
     axis 0 0 -20   XYZ
    dof rx
    limits (-10.0 170.0)
 end
 begin
     id 9 
     name rfoot
     direction -0.0949276 -0.260811 0.960711   
     length 2.19684  
     axis -90 -7.62852e-016 -20   XYZ
    dof rx rz
    limits (-45.0 90.0)
           (-20.0 70.0)
  end
  begin
     id 10 
     name rtoes
     direction -1.53543e-011 -4.2183e-011 1   
     length 1.09848   
     axis -90 -7.62852e-016 -20   XYZ
    dof rx
    limits (-90.0 20.0)
  end
  begin
     id 11 
     name lowerback
     direction 0.0118782 0.999815 -0.0151555   
     length 2.15772   
     axis 0 0 0   XYZ
    dof rx ry rz
    limits (-20.0 45.0)
           (-30.0 30.0)
           (-30.0 30.0)
  end
  begin
     id 12 
     name upperback
     direction 0.00130825 0.999065 0.0432113   
     length 2.14863   
     axis 0 0 0   XYZ
    dof rx ry rz
    limits (-20.0 45.0)
           (-30.0 30.0)
           (-30.0 30.0)
  end
  begin
     id 13 
     name thorax
     direction -0.00347005 0.998773 0.0494011   
     length 2.14936   
     axis 0 0 0   XYZ
    dof rx ry rz
    limits (-20.0 45.0)
           (-30.0 30.0)
           (-30.0 30.0)
  end
  begin
     id 14 
     name lowerneck
     direction -0.0262159 0.99424 0.103921   
     length 1.69373   
     axis 0 0 0   XYZ
    dof rx ry rz
    limits (-20.0 45.0)
           (-30.0 30.0)
           (-30.0 30.0)
  end
  begin
     id 15 
     name upperneck
     direction 0.0353511 0.977394 -0.20845   
     length 1.70857   
     axis 0 0 0   XYZ
    dof rx ry rz
    limits (-20.0 45.0)
           (-30.0 30.0)
           (-30.0 30.0)
  end
  begin
     id 16
     name head
     direction 0.0139214 0.996594 -0.0812836  
     length 1.72777  
     axis 0 0 0   XYZ
    dof rx ry rz
    limits (-20.0 45.0)
           (-30.0 30.0)
           (-30.0 30.0)
  end
  begin
     id 17 
     name lclavicle
     direction 0.841247 0.537205 -0.0609508  
     length 3.55371  
     axis 0 0 0   XYZ
    dof ry rz
    limits (-20.0 10.0)
           (0.0 20.0)
  end
  begin
     id 18 
     name lhumerus
     direction 1 -4.48964e-011 1.60116e-018   
     length 4.91377   
     axis -180 -30 -90   XYZ
    dof rx ry rz
    limits (-60.0 90.0)
           (-90.0 90.0)
           (-90.0 90.0)
  end
  begin
     id 19
     name lradius
     direction 1 -4.48989e-011 -8.93847e-027   
     length 3.00291   
     axis -180 -30 -90   XYZ
    dof rx
    limits (-10.0 170.0)
  end
  begin
     id 20
     name lwrist
     direction 1 -4.48932e-011 -7.31504e-027   
     length 1.50145   
     axis 5.74121e-015 90 90   XYZ
    dof ry
    limits (-180.0 0.0)
 end
  begin
     id 21 
     name lhand
     direction 1 -4.48971e-011 -1.46301e-026   
     length 0.450922   
     axis 9.33524e-015 90 90   XYZ
    dof rx rz
    limits (-90.0 90.0)
           (-45.0 45.0)
  end
  begin
     id 22 
     name lfingers
     direction 1 -4.49039e-011 -2.92602e-026   
     length 0.363545   
     axis 1.86705e-014 90 90   XYZ
    dof rx
    limits (0.0 90.0)
  end
  begin
     id 23
     name lthumb
     direction 0.707107 -6.34941e-011 0.707107   
     length 0.52198   
     axis -90 45 2.85299e-015   XYZ
    dof rx rz
    limits (-45.0 45.0)
           (-45.0 45.0)
  end
  begin
     id 24 
     name rclavicle
     direction -0.825079 0.56158 -0.0622297   
     length 3.39909  
     axis 0 0 0   XYZ 
    dof ry rz
    limits (-10.0 20.0)
           (-20.0 0.0)
  end
  begin
     id 25 
     name rhumerus
     direction -1 -4.48965e-011 1.61691e-027  
     length 4.86725   
     axis -180 30 90   XYZ
    dof rx ry rz
    limits (-90.0 60.0)
           (-90.0 90.0)
           (-90.0 90.0)
  end
  begin
     id 26 
     name rradius
     direction -1 -4.48964e-011 -2.25776e-027   
     length 3.17144   
     axis -180 30 90   XYZ
    dof rx
    limits (-10.0 170.0)
  end
  begin
     id 27 
     name rwrist
     direction -1 -4.48961e-011 -7.31504e-027   
     length 1.58572   
     axis 5.74121e-015 -90 -90   XYZ
    dof ry
    limits (-180.0 0.0)
  end
  begin
     id 28
     name rhand
     direction -1 -4.49013e-011 -1.46301e-026   
     length 0.419368   
     axis 9.33524e-015 -90 -90   XYZ
    dof rx rz
    limits (-90.0 90.0)
           (-45.0 45.0)
  end
  begin
     id 29
     name rfingers
     direction -1 -4.489e-011 -2.92602e-026   
     length 0.338105   
     axis 1.86705e-014 -90 -90   XYZ
    dof rx
    limits (0.0 90.0)
  end
  begin
     id 30
     name rthumb
     direction -0.707107 -6.35022e-011 0.707107   
     length 0.485453   
     axis -90 -45 -2.85299e-015   XYZ
    dof rx rz
    limits (-45.0 45.0)
           (-45.0 45.0)
  end
:hierarchy
  begin
    root lhipjoint rhipjoint lowerback
    lhipjoint lfemur
    lfemur ltibia
    ltibia lfoot
    lfoot ltoes
    rhipjoint rfemur
    rfemur rtibia
    rtibia rfoot
    rfoot rtoes
    lowerback upperback
    upperback thorax
    thorax lowerneck lclavicle rclavicle
    lowerneck upperneck
    upperneck head
    lclavicle lhumerus
    lhumerus lradius
    lradius lwrist
    lwrist lhand lthumb
    lhand lfingers
    rclavicle rhumerus
    rhumerus rradius
    rradius rwrist
    rwrist rhand rthumb
    rhand rfingers
  end

#!OML:ASF H:\Swim 2\Project 1\Capture day 1\Session 1\male.ASF
:FULLY-SPECIFIED
:DEGREES
649
root 7.73231 8.87484 12.2275 76.752 -0.388454 176.576
lowerback 25.234 2.97535 7.41725
upperback -2.83203 6.16728 -1.75814
thorax -15.8839 2.03393 -8.32552
lowerneck -22.1076 9.24372 -2.87194
upperneck 50.2142 3.2603 22.0745
head 30.6118 -1.64398 16.428
rclavicle -1.59028e-015 6.75868e-015
rhumerus -87.8082 23.4654 -115.898
rradius 32.4347
rwrist 6.95459
rhand 22.3866 4.86481
rfingers 7.12502
rthumb 46.7515 -17.9101
lclavicle -1.59028e-015 6.75868e-015
lhumerus 27.6373 50.961 -61.4755
lradius 32.354
lwrist 32.8118
lhand -26.3213 2.5764
lfingers 7.12502
lthumb 0.235445 32.556
rfemur 30.1429 7.55991 26.3999
rtibia 19.2728
rfoot 7.38006 -4.17319
rtoes 21.0105
lfemur 20.033 -9.35173 -30.1536
ltibia 24.7341
lfoot -19.4603 28.4261
ltoes -15.5982
650
root 7.7229 8.86297 12.1864 75.9165 -0.447096 176.734
lowerback 26.1752 2.85356 7.42614
upperback -2.63946 6.09124 -1.74664
thorax -16.1548 1.98777 -8.35281
lowerneck -22.3266 9.29398 -2.91553
upperneck 50.3019 3.51828 21.9017
head 30.7447 -1.5936 16.445
rclavicle 1.90833e-014 2.72335e-014
rhumerus -86.167 23.8778 -114.658
rradius 31.0525
rwrist 7.74022
rhand 22.3799 4.67706
rfingers 7.12502
rthumb 46.7454 -18.1005
lclavicle 1.90833e-014 2.72335e-014
lhumerus 25.6338 50.2442 -62.4917
lradius 32.4044
lwrist 33.5652
lhand -26.3929 2.81305
lfingers 7.12502
lthumb 0.166267 32.7927
rfemur 29.5658 7.42928 26.6219
rtibia 19.8941
rfoot 6.09926 -4.89857
rtoes 21.4924
lfemur 21.4221 -8.28781 -30.2353
ltibia 25.2473
lfoot -17.5666 27.1734
ltoes -15.3539
651
root 7.7134 8.85284 12.1474 75.0819 -0.539397 176.907
lowerback 27.1011 2.73925 7.392
upperback -2.44723 6.01322 -1.73701
thorax -16.4156 1.94694 -8.35425
lowerneck -22.5511 9.34987 -2.92092
upperneck 50.3926 3.77827 21.7025
head 30.8893 -1.53588 16.4349
rclavicle 6.36111e-015 1.53064e-014
rhumerus -84.4527 24.2097 -113.309
rradius 29.6833
rwrist 8.68132
rhand 22.4232 4.51336
rfingers 7.12502
rthumb 46.7854 -18.2468
lclavicle 6.36111e-015 1.53064e-014
lhumerus 23.7525 49.5521 -63.3208
lradius 32.424
lwrist 34.264
lhand -26.4275 3.29065
lfingers 7.12502
lthumb 0.132863 33.2703
rfemur 28.9927 7.34767 26.812
rtibia 20.4891
rfoot 4.85693 -5.64718
rtoes 21.82
lfemur 22.9275 -7.22203 -30.3135
ltibia 25.6872
lfoot -15.2356 25.7761
ltoes -15.5473
652
root 7.70404 8.84508 12.1133 74.2908 -0.648706 177.092
lowerback 27.9682 2.63356 7.3317
upperback -2.26531 5.93477 -1.73025
thorax -16.6545 1.91088 -8.33827
lowerneck -22.7864 9.41651 -2.87435
upperneck 50.4858 4.04311 21.4748
head 31.0499 -1.46727 16.3955
rclavicle -1.90833e-014 7.55382e-015
rhumerus -82.6578 24.4452 -111.866
rradius 28.3369
rwrist 9.84905
rhand 22.5229 4.36636
rfingers 7.12502
rthumb 46.8777 -18.3536
lclavicle -1.90833e-014 7.55382e-015
lhumerus 21.7982 48.6817 -64.2209
lradius 32.4528
lwrist 35.3198
lhand -26.5085 4.00107
lfingers 7.12502
lthumb 0.0546394 33.9808
rfemur 28.4224 7.30551 26.9719
rtibia 20.9951
rfoot 3.73497 -6.41373
rtoes 21.9611
lfemur 24.4996 -6.19365 -30.373
ltibia 26.0425
lfoot -12.7224 24.1474
ltoes -16.2562
653
root 7.69507 8.84052 12.0871 73.5696 -0.76494 177.29
lowerback 28.7496 2.53537 7.25528
upperback -2.09941 5.85384 -1.72771
thorax -16.8652 1.8776 -8.30993
lowerneck -23.0347 9.49801 -2.76498
upperneck 50.5806 4.31477 21.2168
head 31.228 -1.38451 16.3236
rclavicle 9.54166e-015 8.74653e-015
rhumerus -80.7941 24.5805 -110.34
rradius 27.0471
rwrist 11.2647
rhand 22.7183 4.21181
rfingers 7.12502
rthumb 47.0584 -18.4286
lclavicle 9.54166e-015 8.74653e-015
lhumerus 19.5352 47.2452 -65.5252
lradius 32.5619
lwrist 37.2737
lhand -26.7884 4.85249
lfingers 7.12502
lthumb -0.215673 34.8321
rfemur 27.87 7.29948 27.1061
rtibia 21.3554
rfoot 2.65833 -7.24305
rtoes 22.3712
lfemur 26.0986 -5.21661 -30.3967
ltibia 26.3132
lfoot -10.3754 22.1572
ltoes -16.9959
654
root 7.68649 8.83921 12.0723 73.0029 -0.835536 177.493
lowerback 29.3595 2.44157 7.21719
upperback -1.96886 5.77647 -1.72209
thorax -17.025 1.84478 -8.28837
lowerneck -23.2995 9.59582 -2.58429
upperneck 50.6731 4.58857 20.932
head 31.4291 -1.28824 16.221
rclavicle -6.36111e-015 2.42517e-014
rhumerus -78.8961 24.6258 -108.777
rradius 25.8474
rwrist 12.9129
rhand 23.0425 4.02864
rfingers 7.12502
rthumb 47.3581 -18.4782
lclavicle -6.36111e-015 2.42517e-014
lhumerus 17.1751 45.408 -66.9706
lradius 32.7559
lwrist 39.8732
lhand -27.1708 5.68762
lfingers 7.12502
lthumb -0.585077 35.6666
rfemur 27.2706 7.31669 27.2475
rtibia 21.5305
rfoot 1.85251 -8.05244
rtoes 22.3912
lfemur 27.6098 -4.31655 -30.3174
ltibia 26.524
lfoot -8.38701 19.8073
ltoes -18.0525
655
root 7.67823 8.84117 12.07 72.6294 -0.860708 177.702
lowerback 29.7582 2.35364 7.21911
upperback -1.88079 5.70051 -1.71631
thorax -17.1261 1.81063 -8.27543
lowerneck -23.577 9.70873 -2.33568
upperneck 50.7617 4.86216 20.6217
head 31.6519 -1.18003 16.0882
rclavicle -3.33958e-014 -3.97569e-016
rhumerus -76.9895 24.5982 -107.227
rradius 24.7476
rwrist 14.7465
rhand 23.4521 3.83375
rfingers 7.12502
rthumb 47.7363 -18.5012
lclavicle -3.33958e-014 -3.97569e-016
lhumerus 14.7074 42.8929 -68.6522
lradius 33.0774
lwrist 43.2413
lhand -27.5838 6.32268
lfingers 7.12502
lthumb -0.983921 36.3002
rfemur 26.5944 7.34769 27.3787
rtibia 21.5169
rfoot 1.2427 -8.84819
rtoes 22.3611
lfemur 28.9599 -3.50161 -30.1342
ltibia 26.7092
lfoot -6.80434 17.1781
ltoes -18.8276
